{"title":"Darude - Sandstorm [Music Video] (720x480) [Sbyky]","uid":7993539,"size":61915356,"categoryP":"video","categoryS":"music_videos","magnet":"?xt=urn:btih:9d13c61f971ed9f59cbd3c888f4d61e3de3ef49c&amp;dn=Darude+-+Sandstorm+%5BMusic+Video%5D+%28720x480%29+%5BSbyky%5D&amp;tr=udp%3A%2F%2Ftracker.openbittorrent.com%3A80&amp;tr=udp%3A%2F%2Fopen.demonii.com%3A1337&amp;tr=udp%3A%2F%2Ftracker.coppersurfer.tk%3A6969&amp;tr=udp%3A%2F%2Fexodus.desync.com%3A6969","seeders":0,"leechers":1,"uploader":"Sbyky","files":-1,"time":1357548346,"description":" &lt;a href=&quot;http://kastatic.com/i2/u/1813980/0aq32UMZvX.gif&quot; rel=&quot;nofollow&quot; target=&quot;_NEW&quot;&gt;http://kastatic.com/i2/u/1813980/0aq32UMZvX.gif&lt;/a&gt;\n\nCover &lt;a href=&quot;\nhttp://www.shotpix.com/images/12809408053163164719.jpg&quot; rel=&quot;nofollow&quot; target=&quot;_NEW&quot;&gt;\nhttp://www.shotpix.com/images/12809408053163164719.jpg&lt;/a&gt;\n\nGeneral\nComplete name                            : Darude - Sandstorm [Music Video] (720x480) [Sbyky].avi\nFormat                                   : AVI\nFormat/Info                              : Audio Video Interleave\nFile size                                : 59.0 MiB\nDuration                                 : 3mn 50s\nOverall bit rate                         : 2 151 Kbps\nWriting application                      : Lavf51.12.1\n\nVideo\nID                                       : 0\nFormat                                   : MPEG-4 Visual\nFormat profile                           : Simple@L1\nFormat settings, BVOP                    : No\nFormat settings, QPel                    : No\nFormat settings, GMC                     : No warppoints\nFormat settings, Matrix                  : Default (H.263)\nCodec ID                                 : DX50\nCodec ID/Hint                            : DivX 5\nDuration                                 : 3mn 50s\nBit rate                                 : 1 978 Kbps\nWidth                                    : 720 pixels\nHeight                                   : 480 pixels\nDisplay aspect ratio                     : 4:3\nFrame rate                               : 29.970 fps\nStandard                                 : NTSC\nColor space                              : YUV\nChroma subsampling                       : 4:2:0\nBit depth                                : 8 bits\nScan type                                : Progressive\nCompression mode                         : Lossy\nBits/(Pixel*Frame)                       : 0.191\nStream size                              : 54.3 MiB (92%)\nWriting library                          : Lavc51.40.4\n\nAudio\nID                                       : 1\nFormat                                   : MPEG Audio\nFormat version                           : Version 1\nFormat profile                           : Layer 3\nMode                                     : Joint stereo\nMode extension                           : MS Stereo\nCodec ID                                 : 55\nCodec ID/Hint                            : MP3\nDuration                                 : 3mn 50s\nBit rate mode                            : Constant\nBit rate                                 : 160 Kbps\nChannel(s)                               : 2 channels\nSampling rate                            : 44.1 KHz\nCompression mode                         : Lossy\nStream size                              : 4.39 MiB (7%)\nAlignment                                : Aligned on interleaves\nInterleave, duration                     : 26 ms (0.78 video frame)\n\nShared By Sbyky &lt;a href=&quot;\nhttp://kastatic.com/i2/u/1813980/bQg62viaEG.gif&quot; rel=&quot;nofollow&quot; target=&quot;_NEW&quot;&gt;\nhttp://kastatic.com/i2/u/1813980/bQg62viaEG.gif&lt;/a&gt;","torrent":{"xt":"urn:btih:9d13c61f971ed9f59cbd3c888f4d61e3de3ef49c","amp;dn":"Darude+-+Sandstorm+%5BMusic+Video%5D+%28720x480%29+%5BSbyky%5D","amp;tr":["udp%3A%2F%2Ftracker.openbittorrent.com%3A80","udp%3A%2F%2Fopen.demonii.com%3A1337","udp%3A%2F%2Ftracker.coppersurfer.tk%3A6969","udp%3A%2F%2Fexodus.desync.com%3A6969"],"infoHash":"9d13c61f971ed9f59cbd3c888f4d61e3de3ef49c","infoHashBuffer":{"type":"Buffer","data":[157,19,198,31,151,30,217,245,156,189,60,136,143,77,97,227,222,62,244,156]},"announce":[],"urlList":[]}}